<svg width="126" height="108" viewBox="0 0 126 108" fill="none" xmlns="http://www.w3.org/2000/svg">
<path d="M1 88V3.5V1L26.5 2L42 51.5L57 2H81.5V21.5L64.5 50V21.5L44.5 88L32 106.5L39 88L17.5 21.5V88H1Z" fill="#9DDCF9"/>
<path d="M68 64L90.5 26.5L81.5 48L90.5 89.5L106.5 21.5H124.5L102.5 107.5H79.5L68 64Z" fill="#9DDCF9"/>
<path d="M1 88V3.5V1L26.5 2L42 51.5L57 2H81.5V21.5L64.5 50V21.5L44.5 88L32 106.5L39 88L17.5 21.5V88H1Z" stroke="#9DDCF9"/>
<path d="M68 64L90.5 26.5L81.5 48L90.5 89.5L106.5 21.5H124.5L102.5 107.5H79.5L68 64Z" stroke="#9DDCF9"/>
</svg>
